<?xml version="1.0" encoding="UTF-8" standalone="no"?>
<svg
   xml:space="preserve"
   viewBox="0 0 180 180"
   version="1.1"
   id="svg3"
   width="180"
   height="180"
   xmlns="http://www.w3.org/2000/svg"
   xmlns:svg="http://www.w3.org/2000/svg"><defs
   id="defs3" />
  <g
   stroke="#004b62"
   id="g3"
   transform="translate(-15.513843,-32.874513)">
    <path
   fill="#ff0000"
   stroke-width="4.40972"
   d="m 109.39967,38.316396 c 14.48814,12.606514 30.55849,15.92924 43.56276,6.337211 a 5.566392,5.566392 0 0 1 6.30017,-0.01014 l 13.05278,8.505472 a 5.756451,5.756451 0 0 1 1.68143,7.957344 57.432222,57.432222 0 0 0 -10.01669,28.699358 c 0,16.704469 10.16794,30.261719 10.16794,49.145029 0,29.45959 -15.77313,46.65839 -31.14939,51.08178 -29.45386,8.47328 -25.01548,18.88331 -37.30846,18.88331 -12.292983,0 -7.854597,-10.41003 -37.309336,-18.88331 -15.37626,-4.42339 -31.149396,-21.62219 -31.149396,-51.08178 0,-18.88331 10.167938,-32.44056 10.167938,-49.145029 a 57.432222,57.432222 0 0 0 -10.015802,-28.699354 5.756451,5.756451 0 0 1 1.68319,-7.95602 l 13.052778,-8.505473 a 5.566392,5.566392 0 0 1 6.298406,0.0088 c 13.00383,9.590705 29.07418,6.267979 43.562322,-6.338535 a 5.676194,5.676194 0 0 1 7.41936,0.0013 z"
   class="a"
   id="path1" />
    <path
   fill="none"
   stroke-linecap="round"
   stroke-linejoin="round"
   stroke-width="7.24319"
   d="m 68.306217,69.540655 h 75.678713 m -4.56191,4.9e-5 -3.95093,8.842401 v 4.31356 a 29.326518,34.508475 0 1 1 -58.653036,0 v -4.31356 l -3.95093,-8.842401 M 143.98493,164.86962 H 68.306217"
   class="a"
   id="path2" />
    <path
   fill="none"
   stroke-linecap="round"
   stroke-linejoin="round"
   stroke-width="7.24319"
   d="m 72.868123,164.86958 3.95093,-8.84241 v -4.31355 a 29.326518,34.508661 0 1 1 58.653037,0 v 4.31355 l 3.95093,8.84241"
   class="a"
   id="path3" />
  </g>
</svg>
